HIERARCHY
ROOT Hips
{
	OFFSET 0.000000 0.000000 0.000000
	CHANNELS 6 Xposition Yposition Zposition Xrotation Yrotation Zrotation
	JOINT LeftUpLeg_virtual
	{
		OFFSET 0.000000 0.000000 0.000000
		CHANNELS 3 Xrotation Yrotation Zrotation
		JOINT LeftUpLeg
		{
			OFFSET 15.427100 -6.655098 0.678600
			CHANNELS 3 Xrotation Yrotation Zrotation
			JOINT LeftLeg
			{
				OFFSET 4.081073 -39.591068 13.024000
				CHANNELS 3 Xrotation Yrotation Zrotation
				JOINT LeftFoot
				{
					OFFSET -4.081074 -37.707932 -15.979700
					CHANNELS 3 Xrotation Yrotation Zrotation
					JOINT LeftToeBase
					{
						OFFSET 5.346399 -15.068900 20.645000
						CHANNELS 3 Xrotation Yrotation Zrotation
						JOINT LeftToe_End
						{
							OFFSET 2.754700 0.931300 11.300900
							CHANNELS 3 Xrotation Yrotation Zrotation
							End Site
							{
								OFFSET 0 0 0
							}
						}
					}
				}
			}
		}
	}
	JOINT RightUpLeg_virtual
	{
		OFFSET 0.000000 0.000000 0.000000
		CHANNELS 3 Xrotation Yrotation Zrotation
		JOINT RightUpLeg
		{
			OFFSET -15.569500 -6.655098 0.678600
			CHANNELS 3 Xrotation Yrotation Zrotation
			JOINT RightLeg
			{
				OFFSET -4.081825 -39.591045 13.023800
				CHANNELS 3 Xrotation Yrotation Zrotation
				JOINT RightFoot
				{
					OFFSET 4.081824 -37.707954 -15.979600
					CHANNELS 3 Xrotation Yrotation Zrotation
					JOINT RightToeBase
					{
						OFFSET -5.346400 -15.068900 20.645000
						CHANNELS 3 Xrotation Yrotation Zrotation
						JOINT RightToe_End
						{
							OFFSET -2.754700 0.931300 11.300900
							CHANNELS 3 Xrotation Yrotation Zrotation
							End Site
							{
								OFFSET 0 0 0
							}
						}
					}
				}
			}
		}
	}
	JOINT Spine_virtual
	{
		OFFSET 0.000000 0.000000 0.000000
		CHANNELS 3 Xrotation Yrotation Zrotation
		JOINT Spine
		{
			OFFSET -0.279200 12.230698 -2.892100
			CHANNELS 3 Xrotation Yrotation Zrotation
			JOINT Spine1
			{
				OFFSET -0.232667 10.192268 -1.242267
				CHANNELS 3 Xrotation Yrotation Zrotation
				JOINT Spine1_split
				{
					OFFSET -0.232667 10.192268 -1.242267
					CHANNELS 3 Xrotation Yrotation Zrotation
					JOINT Spine2
					{
						OFFSET -0.232667 10.192268 -1.242267
						CHANNELS 3 Xrotation Yrotation Zrotation
						JOINT Neck_virtual
						{
							OFFSET 0.000000 0.000000 0.000000
							CHANNELS 3 Xrotation Yrotation Zrotation
							JOINT Neck
							{
								OFFSET -0.418800 17.814194 8.416900
								CHANNELS 3 Xrotation Yrotation Zrotation
								JOINT Head
								{
									OFFSET 0.000000 7.031097 3.806800
									CHANNELS 3 Xrotation Yrotation Zrotation
									JOINT HeadTop_End
									{
										OFFSET 0.000000 24.646606 12.978600
										CHANNELS 3 Xrotation Yrotation Zrotation
										End Site
										{
											OFFSET 0 0 0
										}
									}
								}
							}
						}
						JOINT LeftShoulder_virtual
						{
							OFFSET 0.000000 0.000000 0.000000
							CHANNELS 3 Xrotation Yrotation Zrotation
							JOINT LeftShoulder
							{
								OFFSET 8.476499 7.247704 -3.868750
								CHANNELS 3 Xrotation Yrotation Zrotation
								JOINT LeftShoulder_split
								{
									OFFSET 8.476499 7.247704 -3.868750
									CHANNELS 3 Xrotation Yrotation Zrotation
									JOINT LeftArm
									{
										OFFSET 9.308998 -2.777710 0.208600
										CHANNELS 3 Xrotation Yrotation Zrotation
										JOINT LeftForeArm
										{
											OFFSET 29.972298 0.000000 0.000000
											CHANNELS 3 Xrotation Yrotation Zrotation
											JOINT LeftHand
											{
												OFFSET 26.026505 0.000000 0.000000
												CHANNELS 3 Xrotation Yrotation Zrotation
												End Site
												{
													OFFSET 0 0 0
												}
											}
										}
									}
								}
							}
						}
						JOINT RightShoulder_virtual
						{
							OFFSET 0.000000 0.000000 0.000000
							CHANNELS 3 Xrotation Yrotation Zrotation
							JOINT RightShoulder
							{
								OFFSET -7.570500 7.247704 -3.868750
								CHANNELS 3 Xrotation Yrotation Zrotation
								JOINT RightShoulder_split
								{
									OFFSET -7.570500 7.247704 -3.868750
									CHANNELS 3 Xrotation Yrotation Zrotation
									JOINT RightArm
									{
										OFFSET -9.308998 -2.777710 0.208500
										CHANNELS 3 Xrotation Yrotation Zrotation
										JOINT RightForeArm
										{
											OFFSET -29.972300 0.000000 0.000000
											CHANNELS 3 Xrotation Yrotation Zrotation
											JOINT RightHand
											{
												OFFSET -26.026505 0.000000 0.000000
												CHANNELS 3 Xrotation Yrotation Zrotation
												End Site
												{
													OFFSET 0 0 0
												}
											}
										}
									}
								}
							}
						}
					}
				}
			}
		}
	}
}
MOTION
Frames: 11
Frame Time: 0.03333333
0.340554 91.826492 -1.091808 0.000000 0.000000 0.000000 -0.587345 -0.357572 -0.369598 -10.253184 4.768217 9.438416 25.279865 3.802540 1.525176 -13.595324 1.731441 -10.976966 -0.000004 0.000006 0.000006 0.000000 0.000000 0.000000 -0.587345 -0.357572 -0.369598 -10.218086 1.699162 -3.328966 25.518051 -0.915145 -2.095863 -14.517349 -1.566453 6.215990 -0.000030 -0.000000 0.000003 0.000000 0.000000 0.000000 -0.587345 -0.357572 -0.369598 0.361416 -0.191608 0.321628 -1.750145 -0.199001 0.196420 0.000000 0.000000 0.000000 0.000000 0.000000 0.000000 -1.750107 -0.188404 0.203701 -0.289761 -0.205837 -0.385588 4.702786 -2.136757 3.065842 0.000000 0.000000 0.000000 -1.750107 -0.188404 0.203701 0.993405 -13.202431 -11.017494 0.000000 0.000000 0.000000 16.778887 -19.384220 -67.597385 0.000006 -17.727271 0.000013 0.000000 0.000000 0.000000 -1.750107 -0.188404 0.203701 1.651816 9.058840 10.503890 0.000000 0.000000 0.000000 6.412943 25.534616 64.587512 0.000004 12.370155 -0.000011 0.000000 0.000000 0.000000 
0.389677 91.849113 -1.115643 0.000000 0.000000 0.000000 -0.563326 -0.326343 -0.282573 -10.289637 4.851444 9.259502 25.219843 3.744057 1.618197 -13.542651 1.715920 -10.993698 -0.000058 0.000003 0.000044 0.000000 0.000000 0.000000 -0.563326 -0.326343 -0.282573 -10.243058 1.629146 -3.520194 25.501929 -0.919442 -2.017952 -14.493870 -1.550850 6.229711 -0.000150 0.000001 -0.000003 0.000000 0.000000 0.000000 -0.563326 -0.326343 -0.282573 0.389220 -0.149196 0.273821 -1.758987 -0.152911 0.185722 0.000000 0.000000 0.000000 0.000000 0.000000 0.000000 -1.758853 -0.144486 0.191302 -0.234933 -0.223743 -0.429562 4.682464 -2.228106 3.016739 0.000000 0.000000 0.000000 -1.758853 -0.144486 0.191302 0.994575 -13.331121 -11.067195 0.000000 0.000000 0.000000 16.711236 -19.428798 -67.559402 0.000004 -17.694293 0.000011 0.000000 0.000000 0.000000 -1.758853 -0.144486 0.191302 1.655696 9.081048 10.518683 0.000000 0.000000 0.000000 6.559973 25.463661 64.487313 0.000006 12.345258 -0.000009 0.000000 0.000000 0.000000 
0.475605 91.895737 -1.135340 0.000000 0.000000 0.000000 -0.564044 -0.349671 -0.204456 -10.218623 4.843116 9.128025 25.103124 3.796887 1.573838 -13.487555 1.704128 -10.979223 0.000001 0.000003 -0.000001 0.000000 0.000000 0.000000 -0.564044 -0.349671 -0.204456 -10.223904 1.583705 -3.723550 25.410862 -0.870145 -1.934495 -14.419252 -1.527411 6.248568 -0.000057 -0.000000 0.000001 0.000000 0.000000 0.000000 -0.564044 -0.349671 -0.204456 0.467957 -0.095865 0.238017 -1.726141 -0.094856 0.195358 0.000000 0.000000 0.000000 0.000000 0.000000 0.000000 -1.725988 -0.088045 0.198933 -0.219294 -0.239945 -0.477885 4.665765 -2.296425 2.991046 0.000000 0.000000 0.000000 -1.725988 -0.088045 0.198933 0.991734 -13.323550 -11.148006 0.000000 0.000000 0.000000 16.457983 -19.698177 -67.507329 0.000004 -17.673553 -0.000016 0.000000 0.000000 0.000000 -1.725988 -0.088045 0.198933 1.661473 9.155295 10.510909 0.000000 0.000000 0.000000 6.689137 25.490500 64.312993 -0.000007 12.254245 -0.000008 0.000000 0.000000 0.000000 
0.593164 91.977905 -1.176207 0.000000 0.000000 0.000000 -0.578062 -0.417529 -0.122864 -10.077784 4.731071 8.943837 24.927312 4.016865 1.578152 -13.402747 1.706626 -11.061936 -0.000041 0.000003 0.000026 0.000000 0.000000 0.000000 -0.578062 -0.417529 -0.122864 -10.184176 1.571270 -3.941644 25.232211 -0.803545 -1.871838 -14.264562 -1.509755 6.299477 -0.000064 0.000000 -0.000003 0.000000 0.000000 0.000000 -0.578062 -0.417529 -0.122864 0.596758 -0.023488 0.196594 -1.620709 -0.015913 0.201612 0.000000 0.000000 0.000000 0.000000 0.000000 0.000000 -1.620686 -0.010844 0.202122 -0.183772 -0.218591 -0.586454 4.269681 -2.307493 3.202154 0.000000 0.000000 0.000000 -1.620686 -0.010844 0.202122 0.989896 -13.432066 -11.270859 0.000000 0.000000 0.000000 15.974696 -19.827769 -67.490131 0.000003 -17.727054 0.000012 0.000000 0.000000 0.000000 -1.620686 -0.010844 0.202122 1.677951 9.285100 10.547348 0.000000 0.000000 0.000000 6.831340 25.636371 64.012014 0.000001 12.156158 0.000010 0.000000 0.000000 0.000000 
0.738539 92.029877 -1.287527 0.000000 0.000000 0.000000 -0.505413 -0.502927 -0.085344 -10.095516 4.212478 8.667637 24.927334 4.671122 1.810371 -13.351147 1.775657 -11.423727 -0.000022 0.000002 0.000012 0.000000 0.000000 0.000000 -0.505413 -0.502927 -0.085344 -10.381822 1.219910 -4.023682 25.135509 -0.416793 -2.030191 -14.075358 -1.467018 6.334875 -0.000054 0.000000 -0.000003 0.000000 0.000000 0.000000 -0.505413 -0.502927 -0.085344 0.792368 0.019497 0.123170 -1.416821 0.032360 0.182690 0.000000 0.000000 0.000000 0.000000 0.000000 0.000000 -1.416967 0.034539 0.181314 -0.196661 -0.283262 -0.562395 3.587528 -2.527387 3.208845 0.000000 0.000000 0.000000 -1.416967 0.034539 0.181314 0.988383 -13.373518 -11.280133 0.000000 0.000000 0.000000 15.352525 -20.245307 -67.493710 0.000001 -17.915204 -0.000009 0.000000 0.000000 0.000000 -1.416967 0.034539 0.181314 1.697831 9.302905 10.690757 0.000000 0.000000 0.000000 6.871400 26.197373 63.484655 -0.000001 12.093670 0.000008 0.000000 0.000000 0.000000 
0.882243 92.039558 -1.477083 0.000000 0.000000 0.000000 -0.325780 -0.650350 -0.196980 -10.359407 3.491740 8.595487 25.152669 5.496756 1.995715 -13.350645 1.870720 -11.878957 -0.000035 0.000004 0.000024 0.000000 0.000000 0.000000 -0.325780 -0.650350 -0.196980 -10.789766 0.987721 -3.807585 25.094989 -0.073559 -2.382012 -13.840099 -1.446180 6.451058 -0.000066 0.000001 0.000000 0.000000 0.000000 0.000000 -0.325780 -0.650350 -0.196980 1.035823 0.038543 0.071349 -1.126574 0.055725 0.161242 0.000000 0.000000 0.000000 0.000000 0.000000 0.000000 -1.126867 0.056063 0.159081 -0.282474 -0.337568 -0.460437 2.552432 -2.645780 3.422394 0.000000 0.000000 0.000000 -1.126867 0.056063 0.159081 0.989572 -13.280082 -11.185791 0.000000 0.000000 0.000000 14.662746 -20.828003 -67.491408 -0.000013 -18.275442 -0.000005 0.000000 0.000000 0.000000 -1.126867 0.056063 0.159081 1.729813 9.398953 10.871323 0.000000 0.000000 0.000000 6.780486 27.024043 62.846715 -0.000004 12.048645 0.000013 0.000000 0.000000 0.000000 
1.005059 91.921600 -1.748669 0.000000 0.000000 0.000000 -0.029400 -1.067439 -0.481144 -10.910717 2.829832 8.944246 25.756372 6.350767 1.862200 -13.517259 1.976085 -12.191518 -0.000084 0.000001 0.000057 0.000000 0.000000 0.000000 -0.029400 -1.067439 -0.481144 -11.541787 1.242654 -3.439495 25.273122 -0.079271 -2.519884 -13.569975 -1.442179 6.568313 -0.000074 0.000000 -0.000003 0.000000 0.000000 0.000000 -0.029400 -1.067439 -0.481144 1.302939 0.056082 0.045567 -0.812834 0.076874 0.083535 0.000000 0.000000 0.000000 0.000000 0.000000 0.000000 -0.813225 0.075473 0.080565 -0.300028 -0.370209 -0.289494 1.348865 -2.717222 3.887563 0.000000 0.000000 0.000000 -0.813225 0.075473 0.080565 0.995267 -13.605458 -11.218932 0.000000 0.000000 0.000000 13.760374 -20.612736 -67.419028 0.000000 -18.796428 -0.000001 0.000000 0.000000 0.000000 -0.813225 0.075473 0.080565 1.793079 9.864635 11.018081 0.000000 0.000000 0.000000 6.610200 27.948559 62.187315 -0.000002 12.088187 0.000006 0.000000 0.000000 0.000000 
1.086303 91.691612 -2.093061 0.000000 0.000000 0.000000 0.365769 -1.637257 -0.982595 -11.865288 2.568041 9.591262 26.731217 6.870804 1.787658 -13.819594 2.062031 -12.369061 -0.000001 0.000005 0.000000 0.000000 0.000000 0.000000 0.365769 -1.637257 -0.982595 -12.541099 1.825739 -2.915845 25.567193 -0.361778 -2.347121 -13.259871 -1.421748 6.597110 -0.000034 0.000000 -0.000003 0.000000 0.000000 0.000000 0.365769 -1.637257 -0.982595 1.594086 0.109190 0.023138 -0.467653 0.134619 -0.012821 0.000000 0.000000 0.000000 0.000000 0.000000 0.000000 -0.468245 0.130838 -0.017873 -0.378662 -0.480261 -0.031796 0.717266 -3.075975 4.437737 0.000000 0.000000 0.000000 -0.468245 0.130838 -0.017873 1.012075 -14.095810 -11.045087 0.000000 0.000000 0.000000 12.935863 -20.528678 -67.378587 -0.000005 -19.391926 -0.000003 0.000000 0.000000 0.000000 -0.468245 0.130838 -0.017873 1.838476 10.195061 11.119194 0.000000 0.000000 0.000000 6.355820 28.999177 61.602835 0.000010 12.344832 -0.000016 0.000000 0.000000 0.000000 
1.105075 91.373627 -2.491381 0.000000 0.000000 0.000000 0.750116 -2.506118 -1.686830 -12.972517 2.511439 10.501569 28.014364 7.358380 1.897769 -14.272447 2.206333 -12.705206 -0.000035 -0.000002 0.000030 0.000000 0.000000 0.000000 0.750116 -2.506118 -1.686830 -13.704073 2.613307 -2.049216 25.936298 -0.471789 -2.180521 -12.903206 -1.344434 6.533629 -0.000076 0.000000 0.000000 0.000000 0.000000 0.000000 0.750116 -2.506118 -1.686830 1.969281 0.133970 -0.006434 -0.101662 0.160544 -0.115333 0.000000 0.000000 0.000000 0.000000 0.000000 0.000000 -0.102163 0.153622 -0.121393 -0.283409 -0.579356 0.331735 -0.228186 -3.356868 5.060050 0.000000 0.000000 0.000000 -0.102163 0.153622 -0.121393 1.026938 -14.637582 -10.975166 0.000000 0.000000 0.000000 12.099721 -19.932898 -67.040246 0.000006 -19.996485 0.000022 0.000000 0.000000 0.000000 -0.102163 0.153622 -0.121393 1.946485 11.098898 11.250869 0.000000 0.000000 0.000000 6.051358 29.630843 60.787454 -0.000002 13.060254 0.000004 0.000000 0.000000 0.000000 
1.036786 90.948738 -2.966064 0.000000 0.000000 0.000000 1.244728 -3.749441 -2.482995 -14.318882 2.639047 11.707217 29.560232 7.860034 2.015405 -14.828066 2.423406 -13.166183 -0.000015 -0.000001 0.000004 0.000000 0.000000 0.000000 1.244728 -3.749441 -2.482995 -15.293490 3.434344 -0.951559 26.504711 -0.587958 -1.874623 -12.478050 -1.172448 6.275566 -0.205214 0.000001 0.000001 0.000000 0.000000 0.000000 1.244728 -3.749441 -2.482995 2.410361 0.200292 -0.124835 0.301350 0.234392 -0.246124 0.000000 0.000000 0.000000 0.000000 0.000000 0.000000 0.301111 0.220712 -0.255147 -0.312637 -0.607360 0.698263 -1.044150 -3.473983 6.334540 0.000000 0.000000 0.000000 0.301111 0.220712 -0.255147 1.030593 -15.107769 -11.140438 0.000000 0.000000 0.000000 11.074340 -18.577505 -66.208077 -0.000005 -20.846361 0.000000 0.000000 0.000000 0.000000 0.301111 0.220712 -0.255147 2.011668 11.666708 11.299517 0.000000 0.000000 0.000000 5.739366 30.628959 60.012255 -0.000003 13.976427 0.000026 0.000000 0.000000 0.000000 
0.925929 90.336388 -3.497667 0.000000 0.000000 0.000000 1.710220 -5.171917 -3.179970 -15.706242 2.434047 12.882179 31.471507 8.696933 2.159523 -15.524001 2.779093 -13.896915 -0.000083 0.000002 0.000058 0.000000 0.000000 0.000000 1.710220 -5.171917 -3.179970 -17.448540 3.639082 0.306282 27.878802 -0.413525 -1.941156 -12.003954 -0.757901 6.007367 -0.965848 0.000001 -0.000001 0.000000 0.000000 0.000000 1.710220 -5.171917 -3.179970 2.926166 0.255106 -0.438458 0.756993 0.314911 -0.440095 0.000000 0.000000 0.000000 0.000000 0.000000 0.000000 0.757384 0.287017 -0.452435 -0.288442 -0.669369 1.138871 -1.966151 -3.756648 7.628361 0.000000 0.000000 0.000000 0.757384 0.287017 -0.452435 1.057236 -16.195270 -11.092339 0.000000 0.000000 0.000000 10.158994 -16.687020 -65.442583 0.000010 -22.620654 0.000003 0.000000 0.000000 0.000000 0.757384 0.287017 -0.452435 2.090713 12.370429 11.333847 0.000000 0.000000 0.000000 5.245940 31.281057 59.236796 -0.000007 15.594495 0.000019 0.000000 0.000000 0.000000 
